<mxfile host="app.diagrams.net" agent="Mozilla/5.0 (Windows NT 10.0; Win64; x64) AppleWebKit/537.36 (KHTML, like Gecko) Chrome/130.0.0.0 Safari/537.36 Edg/130.0.0.0" version="24.8.0">
  <diagram name="Page-1" id="zwQj8WT2YC-Jtg2lFG4g">
    <mxGraphModel dx="2037" dy="1116" grid="1" gridSize="10" guides="1" tooltips="1" connect="1" arrows="1" fold="1" page="1" pageScale="1" pageWidth="850" pageHeight="1100" math="0" shadow="0">
      <root>
        <mxCell id="0" />
        <mxCell id="1" parent="0" />
        <mxCell id="VYXduGylgn7LXqi5S0sB-3" value="" style="edgeStyle=orthogonalEdgeStyle;rounded=0;orthogonalLoop=1;jettySize=auto;html=1;" edge="1" parent="1" source="VYXduGylgn7LXqi5S0sB-1" target="VYXduGylgn7LXqi5S0sB-2">
          <mxGeometry relative="1" as="geometry" />
        </mxCell>
        <mxCell id="VYXduGylgn7LXqi5S0sB-1" value="Create Email" style="rounded=1;whiteSpace=wrap;html=1;" vertex="1" parent="1">
          <mxGeometry x="350" y="70" width="120" height="60" as="geometry" />
        </mxCell>
        <mxCell id="VYXduGylgn7LXqi5S0sB-5" value="" style="edgeStyle=orthogonalEdgeStyle;rounded=0;orthogonalLoop=1;jettySize=auto;html=1;" edge="1" parent="1" source="VYXduGylgn7LXqi5S0sB-2" target="VYXduGylgn7LXqi5S0sB-4">
          <mxGeometry relative="1" as="geometry" />
        </mxCell>
        <mxCell id="VYXduGylgn7LXqi5S0sB-2" value="Open Social Media Accounts" style="rounded=1;whiteSpace=wrap;html=1;" vertex="1" parent="1">
          <mxGeometry x="350" y="160" width="120" height="60" as="geometry" />
        </mxCell>
        <mxCell id="VYXduGylgn7LXqi5S0sB-7" value="" style="edgeStyle=orthogonalEdgeStyle;rounded=0;orthogonalLoop=1;jettySize=auto;html=1;" edge="1" parent="1" source="VYXduGylgn7LXqi5S0sB-4" target="VYXduGylgn7LXqi5S0sB-6">
          <mxGeometry relative="1" as="geometry" />
        </mxCell>
        <mxCell id="VYXduGylgn7LXqi5S0sB-4" value="Create a content Monthly Calendar" style="whiteSpace=wrap;html=1;rounded=1;" vertex="1" parent="1">
          <mxGeometry x="350" y="250" width="120" height="60" as="geometry" />
        </mxCell>
        <mxCell id="VYXduGylgn7LXqi5S0sB-9" value="" style="edgeStyle=orthogonalEdgeStyle;rounded=0;orthogonalLoop=1;jettySize=auto;html=1;" edge="1" parent="1" source="VYXduGylgn7LXqi5S0sB-6" target="VYXduGylgn7LXqi5S0sB-8">
          <mxGeometry relative="1" as="geometry" />
        </mxCell>
        <mxCell id="VYXduGylgn7LXqi5S0sB-6" value="Content Generation" style="whiteSpace=wrap;html=1;rounded=1;" vertex="1" parent="1">
          <mxGeometry x="350" y="350" width="120" height="60" as="geometry" />
        </mxCell>
        <mxCell id="VYXduGylgn7LXqi5S0sB-21" style="edgeStyle=orthogonalEdgeStyle;rounded=0;orthogonalLoop=1;jettySize=auto;html=1;" edge="1" parent="1" source="VYXduGylgn7LXqi5S0sB-8" target="VYXduGylgn7LXqi5S0sB-12">
          <mxGeometry relative="1" as="geometry" />
        </mxCell>
        <mxCell id="VYXduGylgn7LXqi5S0sB-8" value="Fact Checking" style="whiteSpace=wrap;html=1;rounded=1;" vertex="1" parent="1">
          <mxGeometry x="350" y="470" width="120" height="60" as="geometry" />
        </mxCell>
        <mxCell id="VYXduGylgn7LXqi5S0sB-15" value="" style="edgeStyle=orthogonalEdgeStyle;rounded=0;orthogonalLoop=1;jettySize=auto;html=1;entryX=1;entryY=0.75;entryDx=0;entryDy=0;exitX=1;exitY=0.5;exitDx=0;exitDy=0;" edge="1" parent="1" source="VYXduGylgn7LXqi5S0sB-12" target="VYXduGylgn7LXqi5S0sB-6">
          <mxGeometry relative="1" as="geometry">
            <mxPoint x="610" y="570" as="targetPoint" />
            <Array as="points">
              <mxPoint x="610" y="700" />
              <mxPoint x="610" y="395" />
            </Array>
          </mxGeometry>
        </mxCell>
        <mxCell id="VYXduGylgn7LXqi5S0sB-16" value="Not Okay&lt;div&gt;&lt;br&gt;&lt;/div&gt;" style="edgeLabel;html=1;align=center;verticalAlign=middle;resizable=0;points=[];" vertex="1" connectable="0" parent="VYXduGylgn7LXqi5S0sB-15">
          <mxGeometry x="-0.4768" y="2" relative="1" as="geometry">
            <mxPoint as="offset" />
          </mxGeometry>
        </mxCell>
        <mxCell id="VYXduGylgn7LXqi5S0sB-19" value="" style="edgeStyle=orthogonalEdgeStyle;rounded=0;orthogonalLoop=1;jettySize=auto;html=1;" edge="1" parent="1" source="VYXduGylgn7LXqi5S0sB-12" target="VYXduGylgn7LXqi5S0sB-18">
          <mxGeometry relative="1" as="geometry" />
        </mxCell>
        <mxCell id="VYXduGylgn7LXqi5S0sB-20" value="Okay" style="edgeLabel;html=1;align=center;verticalAlign=middle;resizable=0;points=[];" vertex="1" connectable="0" parent="VYXduGylgn7LXqi5S0sB-19">
          <mxGeometry x="-0.2444" y="-1" relative="1" as="geometry">
            <mxPoint as="offset" />
          </mxGeometry>
        </mxCell>
        <mxCell id="VYXduGylgn7LXqi5S0sB-12" value="Send Draft to &quot;Approval Committee" style="rhombus;whiteSpace=wrap;html=1;rounded=1;" vertex="1" parent="1">
          <mxGeometry x="325" y="590" width="170" height="220" as="geometry" />
        </mxCell>
        <mxCell id="VYXduGylgn7LXqi5S0sB-25" style="edgeStyle=orthogonalEdgeStyle;rounded=0;orthogonalLoop=1;jettySize=auto;html=1;entryX=0;entryY=0.5;entryDx=0;entryDy=0;exitX=0;exitY=0.5;exitDx=0;exitDy=0;" edge="1" parent="1" source="VYXduGylgn7LXqi5S0sB-18" target="VYXduGylgn7LXqi5S0sB-6">
          <mxGeometry relative="1" as="geometry">
            <mxPoint x="90" y="407" as="targetPoint" />
            <Array as="points">
              <mxPoint x="250" y="890" />
              <mxPoint x="250" y="380" />
            </Array>
          </mxGeometry>
        </mxCell>
        <mxCell id="VYXduGylgn7LXqi5S0sB-27" value="" style="edgeStyle=orthogonalEdgeStyle;rounded=0;orthogonalLoop=1;jettySize=auto;html=1;" edge="1" parent="1" source="VYXduGylgn7LXqi5S0sB-18" target="VYXduGylgn7LXqi5S0sB-26">
          <mxGeometry relative="1" as="geometry" />
        </mxCell>
        <mxCell id="VYXduGylgn7LXqi5S0sB-18" value="Publish" style="whiteSpace=wrap;html=1;rounded=1;" vertex="1" parent="1">
          <mxGeometry x="350" y="860" width="120" height="60" as="geometry" />
        </mxCell>
        <mxCell id="VYXduGylgn7LXqi5S0sB-28" style="edgeStyle=orthogonalEdgeStyle;rounded=0;orthogonalLoop=1;jettySize=auto;html=1;entryX=0;entryY=0.5;entryDx=0;entryDy=0;" edge="1" parent="1" source="VYXduGylgn7LXqi5S0sB-26" target="VYXduGylgn7LXqi5S0sB-4">
          <mxGeometry relative="1" as="geometry">
            <mxPoint x="100" y="280" as="targetPoint" />
            <Array as="points">
              <mxPoint x="60" y="1030" />
              <mxPoint x="60" y="280" />
            </Array>
          </mxGeometry>
        </mxCell>
        <mxCell id="VYXduGylgn7LXqi5S0sB-26" value="Monthly Performance Review" style="whiteSpace=wrap;html=1;rounded=1;" vertex="1" parent="1">
          <mxGeometry x="350" y="1000" width="120" height="60" as="geometry" />
        </mxCell>
      </root>
    </mxGraphModel>
  </diagram>
</mxfile>
